<svg height="512" viewBox="0 0 64 64" width="512" xmlns="http://www.w3.org/2000/svg"><g id="Fill_Outline" data-name="Fill Outline"><g id="color"><g><g><path d="m3 29h16v8h-16z" fill="#f8664f"/><path d="m3 45h16v8h-16z" fill="#f8664f"/><path d="m13 37h16v8h-16z" fill="#f8664f"/><path d="m13 53h16v8h-16z" fill="#f8664f"/><path d="m19 29h16v8h-16z" fill="#f8664f"/><path d="m19 45h16v8h-16z" fill="#f8664f"/><path d="m29 37h16v8h-16z" fill="#f8664f"/><path d="m29 53h16v8h-16z" fill="#f8664f"/><path d="m35 29h16v8h-16z" fill="#f8664f"/><path d="m35 45h16v8h-16z" fill="#f8664f"/><path d="m45 37h16v8h-16z" fill="#f8664f"/><path d="m45 53h16v8h-16z" fill="#f8664f"/><path d="m3 37h10v8h-10z" fill="#f8664f"/><path d="m3 53h10v8h-10z" fill="#f8664f"/><path d="m51 45h10v8h-10z" fill="#f8664f"/><g fill="#cc5144"><path d="m52 57a4 4 0 0 1 -4-4h-3v8h16v-4z"/><path d="m42 49a4 4 0 0 1 -4-4h-3v8h16v-4z"/><path d="m26 49a4 4 0 0 1 -4-4h-3v8h16v-4z"/><path d="m10 49a4 4 0 0 1 -4-4h-3v8h16v-4z"/><path d="m36 57a4 4 0 0 1 -4-4h-3v8h16v-4z"/><path d="m20 57a4 4 0 0 1 -4-4h-3v8h16v-4z"/><path d="m10 57a4 4 0 0 1 -4-4h-3v8h10v-4z"/><path d="m52 41a4 4 0 0 1 -4-4h-3v8h16v-4z"/><path d="m36 41a4 4 0 0 1 -4-4h-3v8h16v-4z"/><path d="m20 41a4 4 0 0 1 -4-4h-3v8h16v-4z"/><path d="m42 33a4 4 0 0 1 -4-4h-3v8h16v-4z"/><path d="m26 33a4 4 0 0 1 -4-4h-3v8h16v-4z"/><path d="m10 33a4 4 0 0 1 -4-4h-3v8h16v-4z"/><path d="m10 41a4 4 0 0 1 -4-4h-3v8h10v-4z"/><path d="m58 49a4 4 0 0 1 -4-4h-3v8h10v-4z"/><path d="m7 54v-9a2 2 0 0 1 4 0v3a3 3 0 0 0 6 0v-6a3 3 0 0 1 6 0v2a3 3 0 0 0 6 0v-13a2.978 2.978 0 0 0 -.779-2h-25.221v27.816a2.962 2.962 0 0 0 1 .184 3 3 0 0 0 3-3z"/><path d="m49 38v3a2 2 0 0 0 4 0v-1a3 3 0 0 0 6 0v-1a2.978 2.978 0 0 0 -.779-2h-7.221v-1a2 2 0 0 0 -2 2z"/></g></g><path d="m3 29v23a3 3 0 0 0 3 3 3 3 0 0 0 3-3v-9a2 2 0 0 1 2-2 2 2 0 0 1 2 2v3a3 3 0 0 0 3 3 3 3 0 0 0 3-3v-6a3 3 0 0 1 3-3 3 3 0 0 1 3 3v2a3 3 0 0 0 3 3 3 3 0 0 0 3-3v-13a3 3 0 0 0 -3-3h-22a3 3 0 0 0 -3 3z" fill="#93999a"/><g fill="#656b76"><path d="m19.515 26-1.415 2.839a2.774 2.774 0 0 0 3.723 3.722l7.043-3.521a2 2 0 0 0 1.022-2.358 2.971 2.971 0 0 0 -1.888-.682z"/><path d="m6 49v-23a3 3 0 0 0 -3 3v23a3 3 0 0 0 6 0 3 3 0 0 1 -3-3z"/><path d="m18 45a2 2 0 0 1 -2-2 2 2 0 0 0 -2-2h-3a2 2 0 0 1 2 2v3a3 3 0 0 0 6 0v-1z"/><path d="m29 41a2 2 0 0 1 -2-2 2 2 0 0 0 -2-2h-3a3 3 0 0 1 3 3v2a3 3 0 0 0 6 0v-1z"/></g><path d="m58 34h-5a2 2 0 0 0 -2 2v3a2 2 0 0 0 4 0v-1a3 3 0 0 0 6 0v-1a3 3 0 0 0 -3-3z" fill="#d0d8da"/><path d="m57 35v-1h-4a2 2 0 0 0 -2 2v3a2 2 0 0 0 4 0v-1a3 3 0 0 0 6 0h-1a3 3 0 0 1 -3-3z" fill="#93999a"/><path d="m19.615 29.042a2.776 2.776 0 0 1 -.52-3.2l3.522-7.042a2 2 0 0 1 3.2-.52l4.561 4.561a2 2 0 0 1 -.52 3.2l-7.043 3.521a2.774 2.774 0 0 1 -3.2-.52z" fill="#d0d8da"/><rect fill="#f9e109" height="14" rx="2" transform="matrix(.707 .707 -.707 .707 16.13 -21.87)" width="4" x="32.464" y="1.536"/><path d="m29.677 22.132-6.859 3.429a2.774 2.774 0 0 1 -3.2-.519c-.028-.029-.05-.061-.076-.09l-.444.887a2.774 2.774 0 0 0 3.723 3.722l7.043-3.521a2 2 0 0 0 .52-3.2z" fill="#93999a"/><path d="m39.32 3.509-6.977 6.976a1.993 1.993 0 0 1 -2.734.077l-.094.1a2 2 0 0 0 2.828 2.828l7.071-7.071a2 2 0 0 0 0-2.828c-.029-.035-.064-.055-.094-.082z" fill="#fcbc04"/></g></g><g id="Outline_copy" data-name="Outline copy"><path d="m58 33h-5a2.966 2.966 0 0 0 -1 .184v-4.184a1 1 0 0 0 -1-1h-7a1 1 0 0 0 0 2h6v6h-14v-6h4a1 1 0 0 0 0-2h-8.133a3.925 3.925 0 0 0 -.832-1.594 2.974 2.974 0 0 0 .053-4.276l-1.573-1.574a3 3 0 0 0 0-4.242 1 1 0 0 1 0-1.415l.128-.128a2.965 2.965 0 0 0 3.407-.579l2.157-2.156a1 1 0 0 0 -1.414-1.414l-2.157 2.156a1.024 1.024 0 0 1 -1.414 0 1 1 0 0 1 0-1.414l7.071-7.071a1 1 0 1 1 1.414 1.414l-2.086 2.086a1 1 0 0 0 1.414 1.414l2.086-2.085a3 3 0 1 0 -4.242-4.243l-7.071 7.071a2.965 2.965 0 0 0 -.579 3.407l-.128.128a3 3 0 0 0 0 4.244 1 1 0 0 1 0 1.413l-1.574-1.574a3 3 0 0 0 -4.8.78l-3.327 6.652h-12.4a4 4 0 0 0 -4 4v10a1 1 0 0 0 2 0v-10a2 2 0 0 1 2-2h11.809a3.768 3.768 0 0 0 1.1 2.749 3.774 3.774 0 0 0 4.358.707l5.982-2.991a1.96 1.96 0 0 1 .751 1.535v13a2 2 0 0 1 -4 0v-2a4 4 0 0 0 -8 0v6a2 2 0 0 1 -4 0v-3a3 3 0 0 0 -6 0v9a2 2 0 0 1 -4 0v-9a1 1 0 0 0 -2 0v18a1 1 0 0 0 1 1h48a1 1 0 0 0 0-2h-5v-6h14v6h-5a1 1 0 0 0 0 2h6a1 1 0 0 0 1-1v-12a1 1 0 0 0 -2 0v3h-24v-6h14v3a1 1 0 0 0 2 0v-3h9a1 1 0 0 0 1-1v-8a4 4 0 0 0 -4-4zm-5 2h5a2 2 0 0 1 2 2v1a2 2 0 0 1 -4 0 1 1 0 0 0 -2 0v1a1 1 0 0 1 -2 0v-3a1 1 0 0 1 1-1zm-21 1v-6h2v6zm-9.629-7.333a1.772 1.772 0 0 1 -2.049-.333 1.77 1.77 0 0 1 -.332-2.048l3.522-7.043a.988.988 0 0 1 .733-.54 1.031 1.031 0 0 1 .165-.014.985.985 0 0 1 .7.294l1.573 1.573-2.121 2.122a1 1 0 1 0 1.414 1.414l2.124-2.121 1.573 1.573a1 1 0 0 1 -.26 1.6zm9.629 13.333v-4h12v6h-12.556a3.959 3.959 0 0 0 .556-2zm-10-4a2 2 0 0 1 2 2v2a3.959 3.959 0 0 0 .556 2h-4.556v-4a2 2 0 0 1 2-2zm-6 12a3.959 3.959 0 0 0 2-.556v2.556h-8v-6h2a4 4 0 0 0 4 4zm-5-8a1 1 0 0 1 1 1v1h-2v-1a1 1 0 0 1 1-1zm-7 13.444a3.936 3.936 0 0 0 5.444-1.444h2.556v6h-8zm40 4.556h-30v-6h14v3a1 1 0 0 0 2 0v-3h14zm-24-8v-6h14v6zm26-8v-6h4v1a3 3 0 0 0 5.288 1.938 3.945 3.945 0 0 0 4.712.506v2.556z" fill="#323232"/></g></g></svg>